<svg width="154" height="84" viewBox="0 0 154 84" fill="none" xmlns="http://www.w3.org/2000/svg">
<path d="M152.548 7.29703C151.202 4.35106 147.914 2.34363 142.887 1.34814C137.875 0.355744 131.26 0.397453 123.482 1.43725C107.933 3.51589 87.8679 9.56526 66.9839 19.105C46.0998 28.6448 28.3902 39.8508 16.639 50.2426C10.7607 55.4409 6.3978 60.4141 3.86688 64.8517C1.32805 69.3033 0.69216 73.1035 2.03787 76.0495C3.38358 78.9954 6.67238 81.0029 11.6994 81.9984C16.7107 82.9907 23.3263 82.949 31.1042 81.9092C46.6528 79.8306 66.718 73.7812 87.602 64.2415C108.486 54.7017 126.196 43.4957 137.947 33.1039C143.825 27.9056 148.188 22.9324 150.719 18.4947C153.258 14.0432 153.894 10.243 152.548 7.29703Z" stroke="#3C3C3C" stroke-width="1.1"/>
</svg>
