<svg width="55" height="55" viewBox="0 0 55 55" fill="none" xmlns="http://www.w3.org/2000/svg">
<circle cx="27.5" cy="27.5" r="27.5" fill="#2B2B2B"/>
<circle cx="33.6111" cy="20.625" r="10.6944" fill="#F3F3F3"/>
<path d="M32.5567 12.9156C33.4947 12.1736 34.6707 11.8026 36.0847 11.8026C37.4987 11.8026 38.6747 12.1736 39.6127 12.9156C40.5507 13.6576 41.0197 14.5956 41.0197 15.7296C41.0197 16.8496 40.4947 17.8436 39.4447 18.7116C40.8587 19.6076 41.5657 20.8676 41.5657 22.4916C41.5657 23.7516 41.0617 24.8086 40.0537 25.6626C39.0457 26.5166 37.7227 26.9436 36.0847 26.9436C34.4467 26.9436 33.1237 26.5166 32.1157 25.6626C31.1077 24.8086 30.6037 23.7516 30.6037 22.4916C30.6037 20.8676 31.3107 19.6076 32.7247 18.7116C31.6747 17.8436 31.1497 16.8496 31.1497 15.7296C31.1497 14.5956 31.6187 13.6576 32.5567 12.9156ZM34.0267 24.1926C34.6707 24.5986 35.3567 24.8016 36.0847 24.8016C36.8127 24.8016 37.4987 24.5986 38.1427 24.1926C38.7867 23.7726 39.1087 23.1776 39.1087 22.4076C39.1087 21.6376 38.8007 21.0426 38.1847 20.6226C37.5687 20.2026 36.8687 19.9926 36.0847 19.9926C35.3007 19.9926 34.6007 20.2026 33.9847 20.6226C33.3687 21.0426 33.0607 21.6376 33.0607 22.4076C33.0607 23.1776 33.3827 23.7726 34.0267 24.1926ZM34.2157 17.5146C34.7477 17.9346 35.3707 18.1446 36.0847 18.1446C36.7987 18.1446 37.4147 17.9346 37.9327 17.5146C38.4647 17.0806 38.7307 16.5556 38.7307 15.9396C38.7307 15.3096 38.4647 14.7846 37.9327 14.3646C37.4147 13.9446 36.7987 13.7346 36.0847 13.7346C35.3707 13.7346 34.7477 13.9446 34.2157 14.3646C33.6977 14.7846 33.4387 15.3096 33.4387 15.9396C33.4387 16.5556 33.6977 17.0806 34.2157 17.5146Z" fill="#2A2A2A"/>
</svg>
